<svg xmlns="http://www.w3.org/2000/svg" viewBox="0 0 64 64">
  <defs>
    <radialGradient id="night" cx="50%" cy="45%" r="58%">
      <stop offset="0%" stop-color="#123051"/>
      <stop offset="68%" stop-color="#071a33"/>
      <stop offset="100%" stop-color="#031126"/>
    </radialGradient>
    <radialGradient id="glow" cx="50%" cy="50%" r="50%">
      <stop offset="0%" stop-color="#fffdf0"/>
      <stop offset="33%" stop-color="#fff06a"/>
      <stop offset="74%" stop-color="#f4d62b"/>
      <stop offset="100%" stop-color="#d8ab12"/>
    </radialGradient>
    <filter id="softGlow" x="-70%" y="-70%" width="240%" height="240%">
      <feGaussianBlur stdDeviation="4.5" result="blur" />
      <feMerge>
        <feMergeNode in="blur" />
        <feMergeNode in="SourceGraphic" />
      </feMerge>
    </filter>
  </defs>

  <circle cx="32" cy="32" r="31" fill="url(#night)" />
  <circle cx="32" cy="43" r="11" fill="#f5da34" opacity=".26" filter="url(#softGlow)" />
  <circle cx="32" cy="43" r="7.4" fill="url(#glow)" />

  <g fill="#ffef62">
    <circle cx="16" cy="24" r="2.2" />
    <circle cx="14" cy="29" r="2.1" />
    <circle cx="15" cy="34" r="2" />
    <circle cx="18" cy="38" r="1.95" />
    <circle cx="22" cy="41" r="1.9" />
    <circle cx="27" cy="42" r="1.85" />
    <circle cx="31" cy="40" r="1.85" />
    <circle cx="30" cy="35" r="1.9" />
    <circle cx="28" cy="30" r="1.95" />
    <circle cx="25" cy="26" r="2" />
    <circle cx="21" cy="23" r="2.1" />

    <circle cx="48" cy="24" r="2.2" />
    <circle cx="50" cy="29" r="2.1" />
    <circle cx="49" cy="34" r="2" />
    <circle cx="46" cy="38" r="1.95" />
    <circle cx="42" cy="41" r="1.9" />
    <circle cx="37" cy="42" r="1.85" />
    <circle cx="33" cy="40" r="1.85" />
    <circle cx="34" cy="35" r="1.9" />
    <circle cx="36" cy="30" r="1.95" />
    <circle cx="39" cy="26" r="2" />
    <circle cx="43" cy="23" r="2.1" />
  </g>
</svg>
