<svg role="img" viewBox="0 0 48 48" xmlns="http://www.w3.org/2000/svg">
  <title>OpenAI</title>
  <path fill="currentColor" d="M24 5.2c4.25 0 7.71 3.45 7.71 7.71v1.46a8.95 8.95 0 0 1 7.74 8.85 8.9 8.9 0 0 1-3.74 7.25 8.91 8.91 0 0 1-4.22 11.39 8.9 8.9 0 0 1-8.12-.47 8.91 8.91 0 0 1-11.48.96 8.91 8.91 0 0 1-3.92-10.22A8.92 8.92 0 0 1 4.55 24a8.95 8.95 0 0 1 7.75-8.84V12.9A7.71 7.71 0 0 1 20 5.2Zm0 4.06a3.65 3.65 0 0 0-3.65 3.65v5.39l10.13 5.84v-11.2A3.65 3.65 0 0 0 24 9.25Zm-8.2 9.6a4.88 4.88 0 0 0-4.88 4.88c0 1.58.75 3.06 2.02 3.97l4.67 2.7 5.6-3.23-9.7-5.6a4.83 4.83 0 0 0 2.3-1.72Zm18.7.07-10.11 5.84 10.12 5.85a4.87 4.87 0 0 0 4.86-4.88 4.88 4.88 0 0 0-4.87-4.88Zm-21.2 12.3a4.86 4.86 0 0 0 1.43 7.92 4.87 4.87 0 0 0 5.29-.22v-5.39l-4.68-2.7Zm20.7.02-4.67 2.7v5.39a4.87 4.87 0 0 0 6.73-4.5 4.86 4.86 0 0 0-2.05-3.59Zm-10 5.48v5.57a4.86 4.86 0 0 0 4.88-4.87v-3.05Z"/>
</svg>
